<svg width="38" height="38" viewBox="0 0 38 38" fill="none" xmlns="http://www.w3.org/2000/svg">
<path d="M13.0089 21.2786L14.6397 21.7247C15.1772 21.8717 15.446 21.9452 15.6335 22.1332C15.821 22.3213 15.8943 22.5908 16.041 23.1299L16.041 23.1299L16.4857 24.7653C17.1415 27.1767 17.4694 28.3823 18.1897 28.4209C18.9101 28.4595 19.3642 27.2957 20.2724 24.9682L23.4083 16.9314C24.1215 15.1037 24.4781 14.1899 24.0163 13.7268C23.5545 13.2637 22.6432 13.6213 20.8207 14.3364L12.8066 17.4813C10.4856 18.3921 9.3251 18.8474 9.36358 19.5698C9.40206 20.2922 10.6043 20.621 13.0089 21.2786Z" fill="white"/>
</svg>
